<mxfile host="app.diagrams.net" modified="2022-08-23T01:59:25.735Z" agent="5.0 (X11)" etag="i0k3iOTNhg6kh1CEk0Dw" version="20.2.6" type="github">
  <diagram name="Page-1" id="e7e014a7-5840-1c2e-5031-d8a46d1fe8dd">
    <mxGraphModel dx="4400" dy="1547" grid="1" gridSize="10" guides="1" tooltips="1" connect="1" arrows="1" fold="1" page="1" pageScale="1" pageWidth="1169" pageHeight="826" background="none" math="0" shadow="0">
      <root>
        <mxCell id="0" />
        <mxCell id="1" parent="0" />
        <mxCell id="20" value="" style="endArrow=open;strokeColor=#FF0000;endFill=1;rounded=0" parent="1" edge="1">
          <mxGeometry relative="1" as="geometry">
            <mxPoint x="334.5" y="478" as="sourcePoint" />
            <mxPoint x="464.5" y="478" as="targetPoint" />
          </mxGeometry>
        </mxCell>
        <mxCell id="-jhhfMKUaRIEQKiHu2_N-52" value="Empleado" style="swimlane;fontStyle=1;align=center;verticalAlign=top;childLayout=stackLayout;horizontal=1;startSize=26;horizontalStack=0;resizeParent=1;resizeParentMax=0;resizeLast=0;collapsible=1;marginBottom=0;fontFamily=Poppins;fontSource=https%3A%2F%2Ffonts.googleapis.com%2Fcss%3Ffamily%3DPoppins;fontSize=15;" parent="1" vertex="1">
          <mxGeometry x="-600" y="-480" width="590" height="256" as="geometry" />
        </mxCell>
        <mxCell id="-jhhfMKUaRIEQKiHu2_N-53" value="id: int" style="text;align=left;verticalAlign=top;spacingLeft=4;spacingRight=4;overflow=hidden;rotatable=0;points=[[0,0.5],[1,0.5]];portConstraint=eastwest;fontFamily=Poppins;fontSource=https%3A%2F%2Ffonts.googleapis.com%2Fcss%3Ffamily%3DPoppins;fontSize=15;" parent="-jhhfMKUaRIEQKiHu2_N-52" vertex="1">
          <mxGeometry y="26" width="590" height="20" as="geometry" />
        </mxCell>
        <mxCell id="-jhhfMKUaRIEQKiHu2_N-54" value="nombre: String" style="text;align=left;verticalAlign=top;spacingLeft=4;spacingRight=4;overflow=hidden;rotatable=0;points=[[0,0.5],[1,0.5]];portConstraint=eastwest;fontFamily=Poppins;fontSource=https%3A%2F%2Ffonts.googleapis.com%2Fcss%3Ffamily%3DPoppins;fontSize=15;" parent="-jhhfMKUaRIEQKiHu2_N-52" vertex="1">
          <mxGeometry y="46" width="590" height="20" as="geometry" />
        </mxCell>
        <mxCell id="-jhhfMKUaRIEQKiHu2_N-55" value="correo: String&#xa;" style="text;align=left;verticalAlign=top;spacingLeft=4;spacingRight=4;overflow=hidden;rotatable=0;points=[[0,0.5],[1,0.5]];portConstraint=eastwest;fontFamily=Poppins;fontSource=https%3A%2F%2Ffonts.googleapis.com%2Fcss%3Ffamily%3DPoppins;fontSize=15;" parent="-jhhfMKUaRIEQKiHu2_N-52" vertex="1">
          <mxGeometry y="66" width="590" height="20" as="geometry" />
        </mxCell>
        <mxCell id="-jhhfMKUaRIEQKiHu2_N-56" value="empresa: String" style="text;align=left;verticalAlign=top;spacingLeft=4;spacingRight=4;overflow=hidden;rotatable=0;points=[[0,0.5],[1,0.5]];portConstraint=eastwest;fontFamily=Poppins;fontSource=https%3A%2F%2Ffonts.googleapis.com%2Fcss%3Ffamily%3DPoppins;fontSize=15;" parent="-jhhfMKUaRIEQKiHu2_N-52" vertex="1">
          <mxGeometry y="86" width="590" height="24" as="geometry" />
        </mxCell>
        <mxCell id="-jhhfMKUaRIEQKiHu2_N-57" value="rol: String" style="text;align=left;verticalAlign=top;spacingLeft=4;spacingRight=4;overflow=hidden;rotatable=0;points=[[0,0.5],[1,0.5]];portConstraint=eastwest;fontFamily=Poppins;fontSource=https%3A%2F%2Ffonts.googleapis.com%2Fcss%3Ffamily%3DPoppins;fontSize=15;" parent="-jhhfMKUaRIEQKiHu2_N-52" vertex="1">
          <mxGeometry y="110" width="590" height="20" as="geometry" />
        </mxCell>
        <mxCell id="vJ8r76aD_HHUpvMMQtQt-20" value="cedula: String" style="text;align=left;verticalAlign=top;spacingLeft=4;spacingRight=4;overflow=hidden;rotatable=0;points=[[0,0.5],[1,0.5]];portConstraint=eastwest;fontFamily=Poppins;fontSource=https%3A%2F%2Ffonts.googleapis.com%2Fcss%3Ffamily%3DPoppins;fontSize=15;" vertex="1" parent="-jhhfMKUaRIEQKiHu2_N-52">
          <mxGeometry y="130" width="590" height="20" as="geometry" />
        </mxCell>
        <mxCell id="vJ8r76aD_HHUpvMMQtQt-21" value="estado: Boolean" style="text;align=left;verticalAlign=top;spacingLeft=4;spacingRight=4;overflow=hidden;rotatable=0;points=[[0,0.5],[1,0.5]];portConstraint=eastwest;fontFamily=Poppins;fontSource=https%3A%2F%2Ffonts.googleapis.com%2Fcss%3Ffamily%3DPoppins;fontSize=15;" vertex="1" parent="-jhhfMKUaRIEQKiHu2_N-52">
          <mxGeometry y="150" width="590" height="20" as="geometry" />
        </mxCell>
        <mxCell id="-jhhfMKUaRIEQKiHu2_N-58" value="" style="line;strokeWidth=1;fillColor=none;align=left;verticalAlign=middle;spacingTop=-1;spacingLeft=3;spacingRight=3;rotatable=0;labelPosition=right;points=[];portConstraint=eastwest;" parent="-jhhfMKUaRIEQKiHu2_N-52" vertex="1">
          <mxGeometry y="170" width="590" height="8" as="geometry" />
        </mxCell>
        <mxCell id="-jhhfMKUaRIEQKiHu2_N-59" value="+ crearEmp(int id, String nombre, String correo, String empresa, String rol)" style="text;align=left;verticalAlign=top;spacingLeft=4;spacingRight=4;overflow=hidden;rotatable=0;points=[[0,0.5],[1,0.5]];portConstraint=eastwest;fontFamily=Poppins;fontSource=https%3A%2F%2Ffonts.googleapis.com%2Fcss%3Ffamily%3DPoppins;fontSize=15;" parent="-jhhfMKUaRIEQKiHu2_N-52" vertex="1">
          <mxGeometry y="178" width="590" height="26" as="geometry" />
        </mxCell>
        <mxCell id="-jhhfMKUaRIEQKiHu2_N-60" value="+ buscarEmp(String id)" style="text;align=left;verticalAlign=top;spacingLeft=4;spacingRight=4;overflow=hidden;rotatable=0;points=[[0,0.5],[1,0.5]];portConstraint=eastwest;fontFamily=Poppins;fontSource=https%3A%2F%2Ffonts.googleapis.com%2Fcss%3Ffamily%3DPoppins;fontSize=15;" parent="-jhhfMKUaRIEQKiHu2_N-52" vertex="1">
          <mxGeometry y="204" width="590" height="26" as="geometry" />
        </mxCell>
        <mxCell id="-jhhfMKUaRIEQKiHu2_N-61" value="+ modificarEmp(int id, empleado Emp, Boolean estado)" style="text;align=left;verticalAlign=top;spacingLeft=4;spacingRight=4;overflow=hidden;rotatable=0;points=[[0,0.5],[1,0.5]];portConstraint=eastwest;fontFamily=Poppins;fontSource=https%3A%2F%2Ffonts.googleapis.com%2Fcss%3Ffamily%3DPoppins;fontSize=15;" parent="-jhhfMKUaRIEQKiHu2_N-52" vertex="1">
          <mxGeometry y="230" width="590" height="26" as="geometry" />
        </mxCell>
        <mxCell id="-jhhfMKUaRIEQKiHu2_N-63" style="edgeStyle=orthogonalEdgeStyle;rounded=0;orthogonalLoop=1;jettySize=auto;html=1;entryX=0.483;entryY=0.005;entryDx=0;entryDy=0;entryPerimeter=0;" parent="1" source="-jhhfMKUaRIEQKiHu2_N-64" target="-jhhfMKUaRIEQKiHu2_N-52" edge="1">
          <mxGeometry relative="1" as="geometry">
            <Array as="points">
              <mxPoint x="-465" y="-630" />
              <mxPoint x="-313" y="-630" />
            </Array>
          </mxGeometry>
        </mxCell>
        <mxCell id="-jhhfMKUaRIEQKiHu2_N-64" value="Modelo" style="shape=folder;fontStyle=1;spacingTop=10;tabWidth=40;tabHeight=14;tabPosition=left;html=1;" parent="1" vertex="1">
          <mxGeometry x="-520" y="-810" width="110" height="50" as="geometry" />
        </mxCell>
        <mxCell id="-jhhfMKUaRIEQKiHu2_N-69" value="Roles" style="shape=table;startSize=30;container=1;collapsible=1;childLayout=tableLayout;fixedRows=1;rowLines=0;fontStyle=1;align=center;resizeLast=1;fontSize=15;fontFamily=Poppins;fontSource=https%3A%2F%2Ffonts.googleapis.com%2Fcss%3Ffamily%3DPoppins;" parent="1" vertex="1">
          <mxGeometry x="-60" y="-40" width="130" height="120" as="geometry" />
        </mxCell>
        <mxCell id="-jhhfMKUaRIEQKiHu2_N-70" value="" style="shape=tableRow;horizontal=0;startSize=0;swimlaneHead=0;swimlaneBody=0;fillColor=none;collapsible=0;dropTarget=0;points=[[0,0.5],[1,0.5]];portConstraint=eastwest;top=0;left=0;right=0;bottom=1;" parent="-jhhfMKUaRIEQKiHu2_N-69" vertex="1">
          <mxGeometry y="30" width="130" height="30" as="geometry" />
        </mxCell>
        <mxCell id="-jhhfMKUaRIEQKiHu2_N-71" value="PK" style="shape=partialRectangle;connectable=0;fillColor=none;top=0;left=0;bottom=0;right=0;fontStyle=1;overflow=hidden;fontSize=15;" parent="-jhhfMKUaRIEQKiHu2_N-70" vertex="1">
          <mxGeometry width="30" height="30" as="geometry">
            <mxRectangle width="30" height="30" as="alternateBounds" />
          </mxGeometry>
        </mxCell>
        <mxCell id="-jhhfMKUaRIEQKiHu2_N-72" value="Rol" style="shape=partialRectangle;connectable=0;fillColor=none;top=0;left=0;bottom=0;right=0;align=left;spacingLeft=6;fontStyle=5;overflow=hidden;fontSize=15;" parent="-jhhfMKUaRIEQKiHu2_N-70" vertex="1">
          <mxGeometry x="30" width="100" height="30" as="geometry">
            <mxRectangle width="100" height="30" as="alternateBounds" />
          </mxGeometry>
        </mxCell>
        <mxCell id="-jhhfMKUaRIEQKiHu2_N-73" value="" style="shape=tableRow;horizontal=0;startSize=0;swimlaneHead=0;swimlaneBody=0;fillColor=none;collapsible=0;dropTarget=0;points=[[0,0.5],[1,0.5]];portConstraint=eastwest;top=0;left=0;right=0;bottom=0;" parent="-jhhfMKUaRIEQKiHu2_N-69" vertex="1">
          <mxGeometry y="60" width="130" height="30" as="geometry" />
        </mxCell>
        <mxCell id="-jhhfMKUaRIEQKiHu2_N-74" value="" style="shape=partialRectangle;connectable=0;fillColor=none;top=0;left=0;bottom=0;right=0;editable=1;overflow=hidden;" parent="-jhhfMKUaRIEQKiHu2_N-73" vertex="1">
          <mxGeometry width="30" height="30" as="geometry">
            <mxRectangle width="30" height="30" as="alternateBounds" />
          </mxGeometry>
        </mxCell>
        <mxCell id="-jhhfMKUaRIEQKiHu2_N-75" value="Admin" style="shape=partialRectangle;connectable=0;fillColor=none;top=0;left=0;bottom=0;right=0;align=left;spacingLeft=6;overflow=hidden;fontSize=15;" parent="-jhhfMKUaRIEQKiHu2_N-73" vertex="1">
          <mxGeometry x="30" width="100" height="30" as="geometry">
            <mxRectangle width="100" height="30" as="alternateBounds" />
          </mxGeometry>
        </mxCell>
        <mxCell id="-jhhfMKUaRIEQKiHu2_N-76" value="" style="shape=tableRow;horizontal=0;startSize=0;swimlaneHead=0;swimlaneBody=0;fillColor=none;collapsible=0;dropTarget=0;points=[[0,0.5],[1,0.5]];portConstraint=eastwest;top=0;left=0;right=0;bottom=0;" parent="-jhhfMKUaRIEQKiHu2_N-69" vertex="1">
          <mxGeometry y="90" width="130" height="30" as="geometry" />
        </mxCell>
        <mxCell id="-jhhfMKUaRIEQKiHu2_N-77" value="" style="shape=partialRectangle;connectable=0;fillColor=none;top=0;left=0;bottom=0;right=0;editable=1;overflow=hidden;" parent="-jhhfMKUaRIEQKiHu2_N-76" vertex="1">
          <mxGeometry width="30" height="30" as="geometry">
            <mxRectangle width="30" height="30" as="alternateBounds" />
          </mxGeometry>
        </mxCell>
        <mxCell id="-jhhfMKUaRIEQKiHu2_N-78" value="Operario" style="shape=partialRectangle;connectable=0;fillColor=none;top=0;left=0;bottom=0;right=0;align=left;spacingLeft=6;overflow=hidden;fontSize=15;" parent="-jhhfMKUaRIEQKiHu2_N-76" vertex="1">
          <mxGeometry x="30" width="100" height="30" as="geometry">
            <mxRectangle width="100" height="30" as="alternateBounds" />
          </mxGeometry>
        </mxCell>
        <mxCell id="-jhhfMKUaRIEQKiHu2_N-79" value="" style="edgeStyle=entityRelationEdgeStyle;fontSize=12;html=1;endArrow=ERmandOne;startArrow=ERmandOne;rounded=0;entryX=0.5;entryY=0;entryDx=0;entryDy=0;" parent="1" target="-jhhfMKUaRIEQKiHu2_N-69" edge="1">
          <mxGeometry width="100" height="100" relative="1" as="geometry">
            <mxPoint x="-10" y="-340" as="sourcePoint" />
            <mxPoint x="-110" y="-230" as="targetPoint" />
          </mxGeometry>
        </mxCell>
        <mxCell id="-jhhfMKUaRIEQKiHu2_N-92" style="edgeStyle=orthogonalEdgeStyle;rounded=0;orthogonalLoop=1;jettySize=auto;html=1;exitX=0.5;exitY=0;exitDx=0;exitDy=0;entryX=0.5;entryY=1;entryDx=0;entryDy=0;entryPerimeter=0;" parent="1" source="-jhhfMKUaRIEQKiHu2_N-80" target="-jhhfMKUaRIEQKiHu2_N-64" edge="1">
          <mxGeometry relative="1" as="geometry" />
        </mxCell>
        <mxCell id="-jhhfMKUaRIEQKiHu2_N-80" value="Empresa" style="swimlane;fontStyle=1;align=center;verticalAlign=top;childLayout=stackLayout;horizontal=1;startSize=30;horizontalStack=0;resizeParent=1;resizeParentMax=0;resizeLast=0;collapsible=1;marginBottom=0;fillStyle=solid;fontFamily=Poppins;fontSource=https%3A%2F%2Ffonts.googleapis.com%2Fcss%3Ffamily%3DPoppins;fontSize=15;strokeWidth=1;fillColor=#FFFFFF;" parent="1" vertex="1">
          <mxGeometry x="-1400" y="-494" width="770" height="270" as="geometry" />
        </mxCell>
        <mxCell id="-jhhfMKUaRIEQKiHu2_N-81" value="+ (LP)id: Int" style="text;strokeColor=none;fillColor=none;align=left;verticalAlign=top;spacingLeft=4;spacingRight=4;overflow=hidden;rotatable=0;points=[[0,0.5],[1,0.5]];portConstraint=eastwest;fillStyle=solid;fontFamily=Poppins;fontSource=https%3A%2F%2Ffonts.googleapis.com%2Fcss%3Ffamily%3DPoppins;fontSize=15;" parent="-jhhfMKUaRIEQKiHu2_N-80" vertex="1">
          <mxGeometry y="30" width="770" height="24" as="geometry" />
        </mxCell>
        <mxCell id="-jhhfMKUaRIEQKiHu2_N-82" value="+ nombre: String" style="text;strokeColor=none;fillColor=none;align=left;verticalAlign=top;spacingLeft=4;spacingRight=4;overflow=hidden;rotatable=0;points=[[0,0.5],[1,0.5]];portConstraint=eastwest;fillStyle=solid;fontFamily=Poppins;fontSource=https%3A%2F%2Ffonts.googleapis.com%2Fcss%3Ffamily%3DPoppins;fontSize=15;" parent="-jhhfMKUaRIEQKiHu2_N-80" vertex="1">
          <mxGeometry y="54" width="770" height="26" as="geometry" />
        </mxCell>
        <mxCell id="-jhhfMKUaRIEQKiHu2_N-83" value="+ direccion: String" style="text;strokeColor=none;fillColor=none;align=left;verticalAlign=top;spacingLeft=4;spacingRight=4;overflow=hidden;rotatable=0;points=[[0,0.5],[1,0.5]];portConstraint=eastwest;fillStyle=solid;fontFamily=Poppins;fontSource=https%3A%2F%2Ffonts.googleapis.com%2Fcss%3Ffamily%3DPoppins;fontSize=15;" parent="-jhhfMKUaRIEQKiHu2_N-80" vertex="1">
          <mxGeometry y="80" width="770" height="26" as="geometry" />
        </mxCell>
        <mxCell id="-jhhfMKUaRIEQKiHu2_N-84" value="+ telefono:  String" style="text;strokeColor=none;fillColor=none;align=left;verticalAlign=top;spacingLeft=4;spacingRight=4;overflow=hidden;rotatable=0;points=[[0,0.5],[1,0.5]];portConstraint=eastwest;fillStyle=solid;fontFamily=Poppins;fontSource=https%3A%2F%2Ffonts.googleapis.com%2Fcss%3Ffamily%3DPoppins;fontSize=15;" parent="-jhhfMKUaRIEQKiHu2_N-80" vertex="1">
          <mxGeometry y="106" width="770" height="26" as="geometry" />
        </mxCell>
        <mxCell id="-jhhfMKUaRIEQKiHu2_N-85" value="+ nit: String" style="text;strokeColor=none;fillColor=none;align=left;verticalAlign=top;spacingLeft=4;spacingRight=4;overflow=hidden;rotatable=0;points=[[0,0.5],[1,0.5]];portConstraint=eastwest;fillStyle=solid;fontFamily=Poppins;fontSource=https%3A%2F%2Ffonts.googleapis.com%2Fcss%3Ffamily%3DPoppins;fontSize=15;" parent="-jhhfMKUaRIEQKiHu2_N-80" vertex="1">
          <mxGeometry y="132" width="770" height="26" as="geometry" />
        </mxCell>
        <mxCell id="-jhhfMKUaRIEQKiHu2_N-90" value="+ estado: Boolean" style="text;strokeColor=none;fillColor=none;align=left;verticalAlign=top;spacingLeft=4;spacingRight=4;overflow=hidden;rotatable=0;points=[[0,0.5],[1,0.5]];portConstraint=eastwest;fillStyle=solid;fontFamily=Poppins;fontSource=https%3A%2F%2Ffonts.googleapis.com%2Fcss%3Ffamily%3DPoppins;fontSize=15;" parent="-jhhfMKUaRIEQKiHu2_N-80" vertex="1">
          <mxGeometry y="158" width="770" height="26" as="geometry" />
        </mxCell>
        <mxCell id="-jhhfMKUaRIEQKiHu2_N-86" value="" style="line;strokeWidth=1;fillColor=none;align=left;verticalAlign=middle;spacingTop=-1;spacingLeft=3;spacingRight=3;rotatable=0;labelPosition=right;points=[];portConstraint=eastwest;fillStyle=solid;fontFamily=Poppins;fontSource=https%3A%2F%2Ffonts.googleapis.com%2Fcss%3Ffamily%3DPoppins;fontSize=15;" parent="-jhhfMKUaRIEQKiHu2_N-80" vertex="1">
          <mxGeometry y="184" width="770" height="8" as="geometry" />
        </mxCell>
        <mxCell id="-jhhfMKUaRIEQKiHu2_N-87" value="+ crearEmpr(String id, String nombre, String direccion, long telefono, int nit)" style="text;strokeColor=none;fillColor=none;align=left;verticalAlign=top;spacingLeft=4;spacingRight=4;overflow=hidden;rotatable=0;points=[[0,0.5],[1,0.5]];portConstraint=eastwest;fillStyle=solid;fontFamily=Poppins;fontSource=https%3A%2F%2Ffonts.googleapis.com%2Fcss%3Ffamily%3DPoppins;fontSize=15;" parent="-jhhfMKUaRIEQKiHu2_N-80" vertex="1">
          <mxGeometry y="192" width="770" height="26" as="geometry" />
        </mxCell>
        <mxCell id="-jhhfMKUaRIEQKiHu2_N-88" value="+ modificarEmpr(String id, String nombre, String direccion, long telefono, int nit, Boolen estado)" style="text;strokeColor=none;fillColor=none;align=left;verticalAlign=top;spacingLeft=4;spacingRight=4;overflow=hidden;rotatable=0;points=[[0,0.5],[1,0.5]];portConstraint=eastwest;fillStyle=solid;fontFamily=Poppins;fontSource=https%3A%2F%2Ffonts.googleapis.com%2Fcss%3Ffamily%3DPoppins;fontSize=15;" parent="-jhhfMKUaRIEQKiHu2_N-80" vertex="1">
          <mxGeometry y="218" width="770" height="26" as="geometry" />
        </mxCell>
        <mxCell id="-jhhfMKUaRIEQKiHu2_N-89" value="+ buscarEmpr(String nombre)" style="text;strokeColor=none;fillColor=none;align=left;verticalAlign=top;spacingLeft=4;spacingRight=4;overflow=hidden;rotatable=0;points=[[0,0.5],[1,0.5]];portConstraint=eastwest;fillStyle=solid;fontFamily=Poppins;fontSource=https%3A%2F%2Ffonts.googleapis.com%2Fcss%3Ffamily%3DPoppins;fontSize=15;" parent="-jhhfMKUaRIEQKiHu2_N-80" vertex="1">
          <mxGeometry y="244" width="770" height="26" as="geometry" />
        </mxCell>
        <mxCell id="Dr4jJtDoLtez5NuWThE1-20" value="MovimientoDinero" style="swimlane;fontStyle=1;align=center;verticalAlign=top;childLayout=stackLayout;horizontal=1;startSize=26;horizontalStack=0;resizeParent=1;resizeParentMax=0;resizeLast=0;collapsible=1;marginBottom=0;" parent="1" vertex="1">
          <mxGeometry x="150" y="-480" width="315" height="260" as="geometry" />
        </mxCell>
        <mxCell id="Dr4jJtDoLtez5NuWThE1-21" value="-empleado:int&#xa;" style="text;strokeColor=none;fillColor=none;align=left;verticalAlign=top;spacingLeft=4;spacingRight=4;overflow=hidden;rotatable=0;points=[[0,0.5],[1,0.5]];portConstraint=eastwest;" parent="Dr4jJtDoLtez5NuWThE1-20" vertex="1">
          <mxGeometry y="26" width="315" height="26" as="geometry" />
        </mxCell>
        <mxCell id="Dr4jJtDoLtez5NuWThE1-22" value="+saldo:double" style="text;strokeColor=none;fillColor=none;align=left;verticalAlign=top;spacingLeft=4;spacingRight=4;overflow=hidden;rotatable=0;points=[[0,0.5],[1,0.5]];portConstraint=eastwest;" parent="Dr4jJtDoLtez5NuWThE1-20" vertex="1">
          <mxGeometry y="52" width="315" height="26" as="geometry" />
        </mxCell>
        <mxCell id="Dr4jJtDoLtez5NuWThE1-23" value="+tipomovi:string" style="text;strokeColor=none;fillColor=none;align=left;verticalAlign=top;spacingLeft=4;spacingRight=4;overflow=hidden;rotatable=0;points=[[0,0.5],[1,0.5]];portConstraint=eastwest;" parent="Dr4jJtDoLtez5NuWThE1-20" vertex="1">
          <mxGeometry y="78" width="315" height="32" as="geometry" />
        </mxCell>
        <mxCell id="Dr4jJtDoLtez5NuWThE1-24" value="+monto:double" style="text;strokeColor=none;fillColor=none;align=left;verticalAlign=top;spacingLeft=4;spacingRight=4;overflow=hidden;rotatable=0;points=[[0,0.5],[1,0.5]];portConstraint=eastwest;" parent="Dr4jJtDoLtez5NuWThE1-20" vertex="1">
          <mxGeometry y="110" width="315" height="32" as="geometry" />
        </mxCell>
        <mxCell id="Dr4jJtDoLtez5NuWThE1-25" value="" style="line;strokeWidth=1;fillColor=none;align=left;verticalAlign=middle;spacingTop=-1;spacingLeft=3;spacingRight=3;rotatable=0;labelPosition=right;points=[];portConstraint=eastwest;" parent="Dr4jJtDoLtez5NuWThE1-20" vertex="1">
          <mxGeometry y="142" width="315" height="28" as="geometry" />
        </mxCell>
        <mxCell id="Dr4jJtDoLtez5NuWThE1-26" value="+ Crear double (tipomovi)" style="text;html=1;align=center;verticalAlign=middle;resizable=0;points=[];autosize=1;strokeColor=none;fillColor=none;" parent="Dr4jJtDoLtez5NuWThE1-20" vertex="1">
          <mxGeometry y="170" width="315" height="30" as="geometry" />
        </mxCell>
        <mxCell id="Dr4jJtDoLtez5NuWThE1-27" value="+ Modificar String (concepto) double (dinero)" style="text;html=1;align=center;verticalAlign=middle;resizable=0;points=[];autosize=1;strokeColor=none;fillColor=none;" parent="Dr4jJtDoLtez5NuWThE1-20" vertex="1">
          <mxGeometry y="200" width="315" height="30" as="geometry" />
        </mxCell>
        <mxCell id="Dr4jJtDoLtez5NuWThE1-28" value="+ buscar int (empleado) string (concepto) double (dinero)" style="text;html=1;align=center;verticalAlign=middle;resizable=0;points=[];autosize=1;strokeColor=none;fillColor=none;" parent="Dr4jJtDoLtez5NuWThE1-20" vertex="1">
          <mxGeometry y="230" width="315" height="30" as="geometry" />
        </mxCell>
        <mxCell id="Dr4jJtDoLtez5NuWThE1-29" value="Gasto" style="swimlane;fontStyle=1;align=center;verticalAlign=top;childLayout=stackLayout;horizontal=1;startSize=26;horizontalStack=0;resizeParent=1;resizeParentMax=0;resizeLast=0;collapsible=1;marginBottom=0;" parent="1" vertex="1">
          <mxGeometry x="120" y="-190" width="160" height="128" as="geometry" />
        </mxCell>
        <mxCell id="Dr4jJtDoLtez5NuWThE1-30" value="" style="line;strokeWidth=1;fillColor=none;align=left;verticalAlign=middle;spacingTop=-1;spacingLeft=3;spacingRight=3;rotatable=0;labelPosition=right;points=[];portConstraint=eastwest;" parent="Dr4jJtDoLtez5NuWThE1-29" vertex="1">
          <mxGeometry y="26" width="160" height="24" as="geometry" />
        </mxCell>
        <mxCell id="Dr4jJtDoLtez5NuWThE1-31" value="+ crear" style="text;strokeColor=none;fillColor=none;align=left;verticalAlign=top;spacingLeft=4;spacingRight=4;overflow=hidden;rotatable=0;points=[[0,0.5],[1,0.5]];portConstraint=eastwest;" parent="Dr4jJtDoLtez5NuWThE1-29" vertex="1">
          <mxGeometry y="50" width="160" height="26" as="geometry" />
        </mxCell>
        <mxCell id="Dr4jJtDoLtez5NuWThE1-32" value="+ buscartipomovi" style="text;strokeColor=none;fillColor=none;align=left;verticalAlign=top;spacingLeft=4;spacingRight=4;overflow=hidden;rotatable=0;points=[[0,0.5],[1,0.5]];portConstraint=eastwest;" parent="Dr4jJtDoLtez5NuWThE1-29" vertex="1">
          <mxGeometry y="76" width="160" height="26" as="geometry" />
        </mxCell>
        <mxCell id="Dr4jJtDoLtez5NuWThE1-33" value="+ modificartipomovi" style="text;strokeColor=none;fillColor=none;align=left;verticalAlign=top;spacingLeft=4;spacingRight=4;overflow=hidden;rotatable=0;points=[[0,0.5],[1,0.5]];portConstraint=eastwest;" parent="Dr4jJtDoLtez5NuWThE1-29" vertex="1">
          <mxGeometry y="102" width="160" height="26" as="geometry" />
        </mxCell>
        <mxCell id="Dr4jJtDoLtez5NuWThE1-34" value="Ingreso" style="swimlane;fontStyle=1;align=center;verticalAlign=top;childLayout=stackLayout;horizontal=1;startSize=26;horizontalStack=0;resizeParent=1;resizeParentMax=0;resizeLast=0;collapsible=1;marginBottom=0;" parent="1" vertex="1">
          <mxGeometry x="390" y="-196" width="160" height="140" as="geometry" />
        </mxCell>
        <mxCell id="Dr4jJtDoLtez5NuWThE1-35" value="" style="line;strokeWidth=1;fillColor=none;align=left;verticalAlign=middle;spacingTop=-1;spacingLeft=3;spacingRight=3;rotatable=0;labelPosition=right;points=[];portConstraint=eastwest;" parent="Dr4jJtDoLtez5NuWThE1-34" vertex="1">
          <mxGeometry y="26" width="160" height="24" as="geometry" />
        </mxCell>
        <mxCell id="Dr4jJtDoLtez5NuWThE1-36" value="+ crear" style="text;html=1;align=center;verticalAlign=middle;resizable=0;points=[];autosize=1;strokeColor=none;fillColor=none;" parent="Dr4jJtDoLtez5NuWThE1-34" vertex="1">
          <mxGeometry y="50" width="160" height="30" as="geometry" />
        </mxCell>
        <mxCell id="Dr4jJtDoLtez5NuWThE1-37" value="+ buscartipomovi" style="text;html=1;align=center;verticalAlign=middle;resizable=0;points=[];autosize=1;strokeColor=none;fillColor=none;" parent="Dr4jJtDoLtez5NuWThE1-34" vertex="1">
          <mxGeometry y="80" width="160" height="30" as="geometry" />
        </mxCell>
        <mxCell id="Dr4jJtDoLtez5NuWThE1-38" value="modificartipomovi" style="text;html=1;align=center;verticalAlign=middle;resizable=0;points=[];autosize=1;strokeColor=none;fillColor=none;" parent="Dr4jJtDoLtez5NuWThE1-34" vertex="1">
          <mxGeometry y="110" width="160" height="30" as="geometry" />
        </mxCell>
        <mxCell id="Dr4jJtDoLtez5NuWThE1-40" style="edgeStyle=orthogonalEdgeStyle;rounded=0;orthogonalLoop=1;jettySize=auto;html=1;entryX=0;entryY=0.5;entryDx=0;entryDy=0;" parent="1" source="-jhhfMKUaRIEQKiHu2_N-57" target="Dr4jJtDoLtez5NuWThE1-24" edge="1">
          <mxGeometry relative="1" as="geometry" />
        </mxCell>
      </root>
    </mxGraphModel>
  </diagram>
</mxfile>
